<svg id="Icon_Tag" data-name="Icon Tag" xmlns="http://www.w3.org/2000/svg" xmlns:xlink="http://www.w3.org/1999/xlink" width="14" height="14" viewBox="0 0 14 14">
  <defs>
    <clipPath id="clip-path">
      <rect id="Rectangle_4151" data-name="Rectangle 4151" width="14" height="14" fill="#17172f"/>
    </clipPath>
  </defs>
  <g id="Groupe_2200" data-name="Groupe 2200" clip-path="url(#clip-path)">
    <path id="Tracé_1544" data-name="Tracé 1544" d="M13.541,6.683,7.262.4A1.387,1.387,0,0,0,6.279,0H1.4A1.4,1.4,0,0,0,0,1.4V6.279a1.392,1.392,0,0,0,.412.991L6.69,13.548a1.387,1.387,0,0,0,.984.4,1.364,1.364,0,0,0,.984-.412l4.883-4.883a1.364,1.364,0,0,0,.412-.984,1.409,1.409,0,0,0-.412-.991m-11.1-3.2A1.046,1.046,0,1,1,3.488,2.442,1.045,1.045,0,0,1,2.442,3.488" fill="#17172f"/>
  </g>
</svg>
