<svg id="Icon_Mail_Bordeau" data-name="Icon Mail Bordeau" xmlns="http://www.w3.org/2000/svg" width="15.596" height="15.596" viewBox="0 0 15.596 15.596">
  <path id="alternate-email" d="M9.8,2a7.8,7.8,0,0,0,0,15.6h3.9v-1.56H9.8A6.318,6.318,0,0,1,3.56,9.8,6.318,6.318,0,0,1,9.8,3.56,6.318,6.318,0,0,1,16.036,9.8v1.115a1.26,1.26,0,0,1-1.17,1.224,1.26,1.26,0,0,1-1.17-1.224V9.8a3.9,3.9,0,1,0-1.139,2.753A2.888,2.888,0,0,0,14.867,13.7,2.739,2.739,0,0,0,17.6,10.913V9.8A7.8,7.8,0,0,0,9.8,2Zm0,10.137A2.339,2.339,0,1,1,12.137,9.8,2.336,2.336,0,0,1,9.8,12.137Z" transform="translate(-2 -2)" fill="#000000"/>
</svg>
