<svg id="Icon_Download_Black" data-name="Icon Download Black" xmlns="http://www.w3.org/2000/svg" width="12.6" height="15.567" viewBox="0 0 12.6 15.567">
  <path id="Icon_awesome-file-download" data-name="Icon awesome-file-download" d="M7.35,4.135V0H.787A.758.758,0,0,0,0,.73V14.838a.758.758,0,0,0,.787.73H11.812a.758.758,0,0,0,.787-.73V4.865H8.137A.763.763,0,0,1,7.35,4.135Zm2.509,6.426-3.164,2.91a.591.591,0,0,1-.789,0l-3.164-2.91a.483.483,0,0,1,.369-.832H5.25V7.3a.507.507,0,0,1,.525-.486h1.05A.507.507,0,0,1,7.35,7.3V9.73H9.489A.483.483,0,0,1,9.858,10.561ZM12.37,3.193,9.158.213A.82.82,0,0,0,8.6,0H8.4V3.892h4.2V3.706A.7.7,0,0,0,12.37,3.193Z" fill="#000000"/>
</svg>
