<svg id="Episciences_logo_seul" data-name="Episciences logo seul" xmlns="http://www.w3.org/2000/svg" width="30.031" height="30.043" viewBox="0 0 30.031 30.043">
  <path id="Tracé_1502" data-name="Tracé 1502" d="M0,0V3.176H26.855V30.043h3.176V0Z" transform="translate(0 0)" fill="#00bebe"/>
  <path id="Tracé_1503" data-name="Tracé 1503" d="M0,41.488v3.188l19.856-1.741L21.774,64.9h3.188L22.738,39.5Z" transform="translate(0 -34.854)" fill="#0fa0b9"/>
  <path id="Tracé_1504" data-name="Tracé 1504" d="M0,85.881V89.1l13.763-2.423,2.917,16.6h3.235L16.339,83Z" transform="translate(0 -73.236)" fill="#0a8fbe"/>
  <path id="Tracé_1505" data-name="Tracé 1505" d="M0,133.4V136.7l8.622-2.317,2.894,10.81H14.8L10.869,130.5Z" transform="translate(0 -115.148)" fill="#1164b4"/>
  <path id="Tracé_1506" data-name="Tracé 1506" d="M0,182.329V185.7l4.505-1.635,1.741,4.8H9.634L6.4,180Z" transform="translate(0 -158.826)" fill="#143caa"/>
  <path id="Tracé_1507" data-name="Tracé 1507" d="M0,233.317v1.435H4.105L2.823,232Z" transform="translate(0 -204.709)" fill="#171775"/>
</svg>
