<?xml version="1.0" encoding="UTF-8" standalone="no"?>
<!-- Created with Inkscape (http://www.inkscape.org/) -->

<svg
   width="41.725983"
   height="19.413439"
   viewBox="0 0 11.04 5.1364701"
   version="1.1"
   id="svg1"
   inkscape:version="1.4.1-rc (d9e8dc1fe0, 2025-03-10)"
   sodipodi:docname="OPS42px.svg"
   inkscape:export-filename="logo-ops-42.svg"
   inkscape:export-xdpi="96"
   inkscape:export-ydpi="96"
   xmlns:inkscape="http://www.inkscape.org/namespaces/inkscape"
   xmlns:sodipodi="http://sodipodi.sourceforge.net/DTD/sodipodi-0.dtd"
   xmlns="http://www.w3.org/2000/svg"
   xmlns:svg="http://www.w3.org/2000/svg">
  <sodipodi:namedview
     id="namedview1"
     pagecolor="#ffffff"
     bordercolor="#666666"
     borderopacity="1.0"
     inkscape:showpageshadow="2"
     inkscape:pageopacity="0.0"
     inkscape:pagecheckerboard="0"
     inkscape:deskcolor="#d1d1d1"
     inkscape:document-units="mm"
     inkscape:zoom="16.892154"
     inkscape:cx="17.878123"
     inkscape:cy="18.588512"
     inkscape:window-width="1848"
     inkscape:window-height="1043"
     inkscape:window-x="72"
     inkscape:window-y="0"
     inkscape:window-maximized="1"
     inkscape:current-layer="layer1" />
  <defs
     id="defs1">
    <inkscape:path-effect
       effect="bspline"
       id="path-effect9915-9-4-5-1-0-6-3-4"
       is_visible="true"
       lpeversion="1"
       weight="33.333333"
       steps="2"
       helper_size="0"
       apply_no_weight="true"
       apply_with_weight="true"
       only_selected="false"
       uniform="false" />
    <inkscape:path-effect
       effect="bspline"
       id="path-effect9915-6-0-9-8-4-2-2-8-8"
       is_visible="true"
       lpeversion="1"
       weight="33.333333"
       steps="2"
       helper_size="0"
       apply_no_weight="true"
       apply_with_weight="true"
       only_selected="false"
       uniform="false" />
    <inkscape:path-effect
       effect="bspline"
       id="path-effect9915-0-8-5-8-9-5-12-0-0"
       is_visible="true"
       lpeversion="1"
       weight="33.333333"
       steps="2"
       helper_size="0"
       apply_no_weight="true"
       apply_with_weight="true"
       only_selected="false"
       uniform="false" />
    <inkscape:path-effect
       effect="bspline"
       id="path-effect11338-9-0-9-6-9-0-5-4"
       is_visible="true"
       lpeversion="1"
       weight="33.333333"
       steps="2"
       helper_size="0"
       apply_no_weight="true"
       apply_with_weight="true"
       only_selected="false"
       uniform="false" />
  </defs>
  <g
     inkscape:label="Layer 1"
     inkscape:groupmode="layer"
     id="layer1"
     transform="translate(-0.08301014,-0.09260656)">
    <path
       style="font-weight:bold;font-size:2.87764px;line-height:1.25;font-family:'Nimbus Sans L';-inkscape-font-specification:'Nimbus Sans L Bold';letter-spacing:0px;word-spacing:0px;fill:#1164b4;fill-opacity:0.901961;stroke-width:0.0674442"
       d="m 6.2684359,1.5950073 c -0.2935193,0 -0.535241,0.09784 -0.7136547,0.2906416 -0.1870466,0.2014348 -0.2935193,0.4949541 -0.2935193,0.8086169 0,0.3136628 0.1064727,0.6100597 0.2935193,0.8086168 0.1812913,0.1956796 0.4172578,0.2906417 0.7165324,0.2906417 0.2992745,0 0.535241,-0.094962 0.7165323,-0.2906417 C 7.1691372,3.3100808 7.2813652,3.0050509 7.2813652,2.708654 7.2813652,2.380603 7.1748925,2.0842061 6.9878459,1.8856489 6.803677,1.6870918 6.5734658,1.5950073 6.2684359,1.5950073 Z m 0.00288,0.3683379 c 0.3539497,0 0.5784056,0.287764 0.5784056,0.7424311 0,0.4316461 -0.2330888,0.7194101 -0.5784056,0.7194101 -0.3510721,0 -0.5784057,-0.287764 -0.5784057,-0.7309206 0,-0.4431566 0.2273336,-0.7309206 0.5784057,-0.7309206 z m 1.766869,1.015807 h 0.5381187 c 0.3856038,0 0.6330808,-0.2733759 0.6330808,-0.6992666 0,-0.4201354 -0.2388441,-0.6503466 -0.6762454,-0.6503466 H 7.6065366 v 2.0977996 h 0.431646 z m 0,-0.3597051 V 1.989244 h 0.4028696 c 0.2302112,0 0.3366839,0.1007174 0.3366839,0.3136627 0,0.215823 -0.1064727,0.3165404 -0.3366839,0.3165404 z m 3.0100081,-0.351072 c -0.0029,-0.4345237 -0.293519,-0.6733678 -0.823005,-0.6733678 -0.5035867,0 -0.7942283,0.2359665 -0.7942283,0.6445914 0,0.3251733 0.1640255,0.4834435 0.5899163,0.5640174 l 0.293519,0.057553 c 0.287764,0.054675 0.394237,0.1352491 0.394237,0.3050299 0,0.175536 -0.161148,0.2820087 -0.423014,0.2820087 -0.2935185,0 -0.457544,-0.1237385 -0.4719322,-0.3481945 H 9.3935481 c 0.025899,0.4489119 0.3338062,0.6935113 0.8690469,0.6935113 0.540997,0 0.860415,-0.2503547 0.860415,-0.6791231 0,-0.3309286 -0.166903,-0.503587 -0.555385,-0.5784056 L 10.239574,2.4726875 C 9.9316668,2.4122571 9.8424599,2.3518266 9.8424599,2.1993117 c 0,-0.1582702 0.1381267,-0.2589876 0.3625831,-0.2589876 0.273375,0 0.42589,0.1151056 0.440278,0.328051 z"
       id="text238-1-0-2-7-9-76-2-3-83-7-6-9"
       aria-label="OPS" />
    <path
       style="mix-blend-mode:normal;fill:#0fa0b9;fill-opacity:1;stroke:none;stroke-width:0.16249px;stroke-linecap:butt;stroke-linejoin:miter;stroke-opacity:1"
       d="m 412.36365,132.60219 c -1.16537,-2.13265 -3.39101,1.89374 -3.33843,6.03957 0.0526,4.14584 2.38317,8.41109 3.49599,6.39787 1.11281,-2.01321 1.00782,-10.30479 -0.15756,-12.43744 z"
       id="path9913-41-8-9-4-5-4-5-5"
       inkscape:original-d="m 413.42403,126.44297 c -2.22583,4.02653 -4.45148,8.05291 -6.67694,12.07916 2.33051,4.26558 4.66109,8.53083 6.99193,12.79604 -0.1052,-8.29175 -0.21018,-16.58333 -0.31499,-24.8752 z"
       inkscape:path-effect="#path-effect9915-9-4-5-1-0-6-3-4"
       transform="matrix(0.25490976,0,0,0.25490976,-101.55898,-32.62099)" />
    <path
       style="mix-blend-mode:normal;fill:#0a8fbe;fill-opacity:1;stroke:none;stroke-width:0.191535px;stroke-linecap:butt;stroke-linejoin:miter;stroke-opacity:1"
       d="m 407.64583,130.12936 c -1.15652,-2.98588 -3.36529,2.65136 -3.3131,8.45586 0.0522,5.80451 2.3651,11.77618 3.46946,8.95749 1.10436,-2.81868 1.00017,-14.42747 -0.15636,-17.41335 z"
       id="path9913-4-5-7-1-6-4-0-6-5"
       inkscape:original-d="m 408.69816,121.50602 c -2.20896,5.63742 -4.41771,11.27466 -6.62629,16.91169 2.31282,5.97211 4.62573,11.94378 6.93888,17.91538 -0.10439,-11.60906 -0.20858,-23.21785 -0.31259,-34.82707 z"
       inkscape:path-effect="#path-effect9915-6-0-9-8-4-2-2-8-8"
       transform="matrix(0.25490976,0,0,0.25490976,-101.55898,-32.62099)" />
    <path
       style="fill:#1164b4;fill-opacity:0.901961;stroke:none;stroke-width:0.211657px;stroke-linecap:butt;stroke-linejoin:miter;stroke-opacity:1"
       d="m 402.54497,129.21199 c -1.32886,-3.17337 -3.86675,2.81784 -3.80678,8.98681 0.06,6.16896 2.71752,12.5156 3.98644,9.51994 1.26892,-2.99567 1.1492,-15.33339 -0.17966,-18.50675 z"
       id="path9913-0-4-6-4-2-4-6-9-2"
       inkscape:original-d="m 403.75411,120.04717 c -2.5381,5.99141 -5.076,11.98261 -7.61366,17.97359 2.65745,6.34711 5.315,12.69375 7.97282,19.04031 -0.11995,-12.338 -0.23966,-24.67572 -0.35916,-37.0139 z"
       inkscape:path-effect="#path-effect9915-0-8-5-8-9-5-12-0-0"
       transform="matrix(0.25490976,0,0,0.25490976,-101.55898,-32.62099)" />
    <path
       style="mix-blend-mode:normal;fill:#00bebe;fill-opacity:1;stroke:none;stroke-width:0.195838px;stroke-linecap:butt;stroke-linejoin:miter;stroke-opacity:0.941176"
       d="m 415.49071,135.7961 c -0.6521,-0.92894 -1.77753,1.14937 -1.68812,3.11741 0.0894,1.96803 1.39344,3.8259 1.95615,2.78679 0.5627,-1.03912 0.38408,-4.97527 -0.26803,-5.9042 z"
       id="path11336-1-3-9-6-9-4-8-9"
       inkscape:original-d="m 415.96418,132.78861 c -1.12563,2.07852 -2.25106,4.15683 -3.3763,6.23493 1.3039,1.85816 2.60793,3.71603 3.91218,5.57374 -0.17882,-3.93609 -0.35744,-7.87224 -0.53588,-11.80867 z"
       inkscape:path-effect="#path-effect11338-9-0-9-6-9-0-5-4"
       transform="matrix(0.25490976,0,0,0.25490976,-101.55898,-32.62099)" />
  </g>
</svg>
